<?xml version="1.0"?>
<svg width="640" height="480" xmlns="http://www.w3.org/2000/svg" xmlns:svg="http://www.w3.org/2000/svg" xmlns:xlink="http://www.w3.org/1999/xlink">
 <!-- Created with SVG-edit - https://github.com/SVG-Edit/svgedit-->
 <defs>
  <symbol height="89.000000pt" id="svg_1" preserveAspectRatio="xMidYMid meet" viewBox="0 0 300.000000 89.000000" width="300.000000pt" xmlns="http://www.w3.org/2000/svg">
   <metadata>Created by potrace 1.10, written by Peter Selinger 2001-2011</metadata>
   <g fill="#000000" transform="translate(0.000000,89.000000) scale(0.100000,-0.100000)">
    <path d="m1180,688c0,-72 9,-98 31,-98c16,0 19,8 19,53c0,28 3,62 6,75c6,19 3,22 -25,22c-31,0 -31,0 -31,-52z"/>
    <path d="m460,445l0,-285l25,0l25,0l0,285l0,285l-25,0l-25,0l0,-285z"/>
    <path d="m990,517l0,-214l30,0l30,0l0,214l0,213l-30,0l-30,0l0,-213z"/>
    <path d="m130,693c0,-22 3,-23 95,-23c92,0 95,1 95,23c0,21 -3,22 -95,22c-92,0 -95,-1 -95,-22z"/>
    <path d="m2160,470l0,-250l28,0l27,0l0,250l0,250l-27,0l-28,0l0,-250z"/>
    <path d="m620,664l0,-26l95,4c52,1 95,2 95,0c0,-1 -11,-25 -25,-51c-28,-56 -88,-111 -158,-148c-47,-23 -48,-25 -32,-44c18,-18 19,-18 67,8c26,14 66,41 87,60c25,20 42,29 46,23c4,-6 29,-29 57,-51c48,-38 52,-39 69,-23c22,20 24,34 7,34c-7,0 -36,19 -64,42l-51,41l19,34c11,18 26,53 33,78l14,45l-129,0l-130,0l0,-26z"/>
    <path d="m1780,455l0,-235l98,0c152,1 214,39 216,135c1,54 -27,95 -75,112l-34,11l26,10c38,15 59,50 59,97c0,76 -54,105 -196,105l-94,0l0,-235zm210,175c24,-13 34,-57 20,-91c-14,-33 -54,-49 -121,-49l-49,0l0,75l0,75l66,0c36,0 74,-4 84,-10zm-160,-160c0,-5 -4,-10 -10,-10c-5,0 -10,5 -10,10c0,6 5,10 10,10c6,0 10,-4 10,-10zm155,-35c61,-25 70,-104 18,-145c-20,-16 -41,-20 -94,-20l-69,0l0,90l0,90l55,0c31,0 71,-7 90,-15z"/>
    <path d="m60,620c0,-19 7,-20 165,-20c158,0 165,1 165,20c0,19 -7,20 -165,20c-158,0 -165,-1 -165,-20z"/>
    <path d="m160,563c-57,-21 -79,-94 -40,-133c26,-26 59,-33 132,-28c51,4 65,9 85,32c58,68 0,137 -114,135c-26,0 -55,-3 -63,-6zm128,-49c49,-34 15,-74 -63,-74c-44,0 -57,4 -69,21c-8,12 -12,28 -9,36c13,33 103,44 141,17z"/>
    <path d="m2359,547c-46,-31 -69,-80 -69,-149c0,-108 43,-170 128,-184c111,-18 192,74 179,203c-10,99 -67,153 -160,153c-29,0 -55,-8 -78,-23zm120,-28c43,-15 61,-54 61,-133c0,-55 -4,-69 -26,-95c-22,-26 -33,-31 -70,-31c-56,0 -89,29 -99,88c-14,84 18,165 68,175c12,2 25,5 28,6c3,0 20,-4 38,-10z"/>
    <path d="m2736,560c-64,-20 -97,-76 -98,-163c0,-76 11,-106 52,-140c44,-38 125,-38 168,-2l30,25l-5,-42c-7,-65 -23,-97 -54,-113c-38,-20 -88,-19 -132,4l-37,19l0,-28c0,-22 6,-30 31,-39c48,-16 129,-13 169,7c59,29 68,62 76,280l7,192l-33,0c-27,0 -32,-3 -27,-20c6,-25 3,-25 -31,0c-33,24 -78,32 -116,20zm108,-61c14,-11 29,-34 34,-51c11,-44 -1,-124 -22,-147c-40,-45 -124,-34 -151,20c-29,55 -11,163 32,188c29,17 78,13 107,-10zm58,-11c-7,-7 -12,-8 -12,-2c0,14 12,26 19,19c2,-3 -1,-11 -7,-17zm8,-183c0,-8 -4,-15 -10,-15c-5,0 -7,7 -4,15c4,8 8,15 10,15c2,0 4,-7 4,-15z"/>
    <path d="m1366,538c-61,-54 -35,-115 69,-165c40,-19 76,-42 80,-50c8,-22 -19,-60 -48,-65c-22,-4 -89,9 -129,27c-15,6 -18,2 -18,-18c0,-20 8,-28 40,-41c105,-42 210,-1 210,81c0,43 -21,65 -99,103c-75,36 -96,65 -71,95c18,22 89,19 128,-5l32,-20l0,29c0,36 -32,51 -110,51c-47,0 -64,-5 -84,-22z"/>
    <path d="m310,369c-47,-4 -127,-7 -177,-8c-93,-1 -93,-1 -93,-27c0,-25 0,-25 82,-23l81,2l-2,-71l-2,-72l30,0l31,0l0,74l0,74l85,7c81,7 85,9 85,31c0,17 -5,24 -17,22c-10,0 -56,-4 -103,-9z"/>
    <path d="m700,250l0,-80l180,0l180,0l0,25l0,26l-152,-1l-153,-2l3,56l2,56l-30,0l-30,0l0,-80z"/>
   </g>
  </symbol>
 </defs>
 <g class="layer">
  <title>Layer 1</title>
  <use id="svg_2" transform="matrix(1.48007 0 0 1.72672 -3.27413 -44.4898)" x="20.269334" xlink:href="#svg_1" y="105.6197"/>
  <g id="svg_3"/>
 </g>
</svg>