<?xml version="1.0" standalone="no"?>
<!DOCTYPE svg PUBLIC "-//W3C//DTD SVG 20010904//EN"
 "http://www.w3.org/TR/2001/REC-SVG-20010904/DTD/svg10.dtd">
<svg version="1.0" xmlns="http://www.w3.org/2000/svg"
 width="42.000000pt" height="42.000000pt" viewBox="0 0 62.000000 42.000000"
 preserveAspectRatio="xMidYMid meet">

<g transform="translate(0.000000,52.000000) scale(0.100000,-0.100000)"
fill="#000000" stroke="none">
<path d="M80 390 c0 -5 23 -10 50 -10 28 0 50 5 50 10 0 6 -22 10 -50 10 -27
0 -50 -4 -50 -10z"/>
<path d="M250 255 c0 -122 2 -145 15 -145 13 0 15 23 15 145 0 122 -2 145 -15
145 -13 0 -15 -23 -15 -145z"/>
<path d="M540 290 c0 -67 4 -110 10 -110 6 0 10 43 10 110 0 67 -4 110 -10
110 -6 0 -10 -43 -10 -110z"/>
<path d="M340 370 c0 -5 23 -10 50 -10 28 0 50 -4 50 -9 0 -16 -50 -69 -86
-92 -24 -14 -32 -25 -26 -31 7 -7 26 0 57 21 l47 31 30 -25 c16 -14 35 -22 40
-18 7 4 -3 18 -25 36 -35 27 -36 30 -22 50 32 45 21 57 -50 57 -37 0 -65 -4
-65 -10z"/>
<path d="M40 350 c0 -6 37 -10 90 -10 53 0 90 4 90 10 0 6 -37 10 -90 10 -53
0 -90 -4 -90 -10z"/>
<path d="M82 304 c-28 -19 -28 -39 0 -58 45 -32 118 -14 118 29 0 43 -73 61
-118 29z m82 -10 c9 -3 16 -12 16 -19 0 -24 -72 -36 -85 -15 -19 30 25 51 69
34z"/>
<path d="M128 213 c-54 -2 -98 -8 -98 -13 0 -6 20 -10 45 -10 l45 0 0 -40 c0
-29 4 -40 15 -40 11 0 15 11 15 40 0 38 2 40 29 40 35 0 61 9 61 21 0 5 -3 8
-7 7 -5 -1 -52 -4 -105 -5z"/>
<path d="M380 160 l0 -40 95 0 c57 0 95 4 95 10 0 6 -33 10 -80 10 l-80 0 0
30 c0 20 -5 30 -15 30 -11 0 -15 -11 -15 -40z"/>
</g>
</svg>
