<?xml version="1.0" standalone="no"?>
<!DOCTYPE svg PUBLIC "-//W3C//DTD SVG 20010904//EN"
 "http://www.w3.org/TR/2001/REC-SVG-20010904/DTD/svg10.dtd">
<svg version="1.0" xmlns="http://www.w3.org/2000/svg"
 width="584.000000pt" height="173.000000pt" viewBox="0 0 584.000000 173.000000"
 preserveAspectRatio="xMidYMid meet">

<g transform="translate(0.000000,173.000000) scale(0.100000,-0.100000)"
fill="#000000" stroke="none">
<path d="M2294 1368 c3 -35 8 -98 12 -141 l6 -78 37 3 36 3 7 90 c4 50 9 111
11 138 l4 47 -60 0 -59 0 6 -62z"/>
<path d="M890 860 l0 -550 50 0 50 0 0 550 0 550 -50 0 -50 0 0 -550z"/>
<path d="M1932 1003 l3 -408 50 0 50 0 3 408 2 407 -55 0 -55 0 2 -407z"/>
<path d="M4210 915 l0 -485 50 0 50 0 0 485 0 485 -50 0 -50 0 0 -485z"/>
<path d="M260 1345 l0 -45 175 0 175 0 0 45 0 45 -175 0 -175 0 0 -45z"/>
<path d="M1210 1295 l0 -45 180 0 c144 0 180 -3 180 -13 0 -33 -67 -144 -122
-203 -73 -78 -129 -120 -237 -177 l-83 -44 32 -36 32 -36 61 31 c81 40 171
102 228 155 l45 42 60 -55 c32 -31 86 -74 119 -96 l60 -40 33 37 34 37 -73 47
c-78 51 -169 127 -169 142 0 4 14 30 30 56 31 48 80 186 80 224 0 18 -9 19
-245 19 l-245 0 0 -45z"/>
<path d="M3470 884 l0 -456 203 4 c198 3 203 4 259 31 199 98 197 380 -2 447
l-55 19 30 11 c37 14 91 65 112 105 25 46 22 132 -5 180 -53 92 -124 115 -364
115 l-178 0 0 -456z m397 342 c18 -11 37 -33 44 -48 16 -39 13 -111 -6 -148
-26 -51 -65 -64 -202 -68 l-123 -4 0 147 0 147 128 -4 c104 -2 133 -7 159 -22z
m8 -381 c60 -30 85 -75 85 -150 0 -77 -25 -120 -90 -152 -39 -20 -60 -23 -167
-23 l-123 0 0 176 0 176 128 -4 c102 -2 135 -7 167 -23z"/>
<path d="M110 1205 l0 -45 325 0 325 0 0 45 0 45 -325 0 -325 0 0 -45z"/>
<path d="M328 1096 c-92 -25 -138 -77 -138 -157 0 -99 79 -157 223 -166 189
-12 316 82 278 206 -31 104 -203 160 -363 117z m199 -77 c62 -23 88 -72 63
-118 -22 -43 -147 -64 -232 -41 -40 12 -78 51 -78 82 0 24 52 75 83 81 45 9
137 7 164 -4z"/>
<path d="M4673 1101 c-91 -23 -166 -96 -200 -194 -26 -76 -24 -233 5 -307 44
-114 132 -179 252 -188 197 -14 329 124 330 345 0 208 -109 342 -285 349 -38
2 -84 -1 -102 -5z m161 -95 c78 -32 116 -114 116 -246 0 -170 -67 -260 -195
-260 -79 0 -129 31 -168 105 -19 34 -22 57 -22 155 0 98 3 121 22 155 24 46
58 80 93 94 37 14 116 13 154 -3z"/>
<path d="M2743 1091 c-86 -22 -143 -85 -143 -158 0 -97 54 -153 212 -218 142
-59 173 -112 104 -181 -32 -32 -38 -34 -98 -34 -65 0 -159 25 -205 55 -12 8
-25 15 -28 15 -3 0 -5 -22 -5 -50 0 -41 4 -52 23 -64 89 -56 275 -63 359 -13
84 49 116 138 80 219 -24 55 -49 73 -195 142 -120 56 -137 72 -137 126 0 47
16 68 62 81 68 18 149 -1 231 -55 l27 -18 0 51 0 52 -55 25 c-60 28 -174 40
-232 25z"/>
<path d="M5317 1089 c-58 -17 -132 -90 -158 -157 -19 -47 -23 -77 -24 -172 0
-106 2 -119 28 -172 35 -71 82 -113 149 -133 100 -29 205 -11 266 47 l34 33
-4 -91 c-7 -116 -32 -168 -98 -202 -39 -20 -56 -23 -130 -19 -79 4 -102 10
-193 55 -4 2 -7 -20 -5 -49 l3 -53 55 -20 c67 -24 212 -28 283 -7 64 18 129
78 157 143 26 60 27 82 34 516 l3 272 -53 0 -54 0 0 -41 0 -42 -21 27 c-47 60
-177 91 -272 65z m210 -112 c53 -37 81 -89 89 -168 17 -172 -59 -279 -199
-279 -113 0 -176 81 -177 225 0 128 30 199 100 237 51 28 135 21 187 -15z"/>
<path d="M655 720 c-44 -4 -194 -11 -333 -15 l-252 -8 0 -44 0 -43 165 0 165
0 0 -140 0 -140 50 0 50 0 0 145 c0 131 2 145 18 145 27 0 233 19 275 26 35 6
37 7 37 45 l0 39 -47 -2 c-27 -1 -84 -5 -128 -8z"/>
<path d="M1370 485 l0 -155 345 0 345 0 0 45 0 45 -295 0 -295 0 0 110 0 110
-50 0 -50 0 0 -155z"/>
</g>
</svg>
