<svg height="173pt" preserveAspectRatio="xMidYMid meet" viewBox="0 0 584 173" width="584pt" xmlns="http://www.w3.org/2000/svg"><g transform="matrix(.1 0 0 -.1 0 173)"><path d="m2294 1368c3-35 8-98 12-141l6-78 37 3 36 3 7 90c4 50 9 111 11 138l4 47h-60-59z"/><path d="m890 860v-550h50 50v550 550h-50-50z"/><path d="m1932 1003 3-408h50 50l3 408 2 407h-55-55z"/><path d="m4210 915v-485h50 50v485 485h-50-50z"/><path d="m260 1345v-45h175 175v45 45h-175-175z"/><path d="m1210 1295v-45h180c144 0 180-3 180-13 0-33-67-144-122-203-73-78-129-120-237-177l-83-44 32-36 32-36 61 31c81 40 171 102 228 155l45 42 60-55c32-31 86-74 119-96l60-40 33 37 34 37-73 47c-78 51-169 127-169 142 0 4 14 30 30 56 31 48 80 186 80 224 0 18-9 19-245 19h-245z"/><path d="m3470 884v-456l203 4c198 3 203 4 259 31 199 98 197 380-2 447l-55 19 30 11c37 14 91 65 112 105 25 46 22 132-5 180-53 92-124 115-364 115h-178zm397 342c18-11 37-33 44-48 16-39 13-111-6-148-26-51-65-64-202-68l-123-4v147 147l128-4c104-2 133-7 159-22zm8-381c60-30 85-75 85-150 0-77-25-120-90-152-39-20-60-23-167-23h-123v176 176l128-4c102-2 135-7 167-23z"/><path d="m110 1205v-45h325 325v45 45h-325-325z"/><path d="m328 1096c-92-25-138-77-138-157 0-99 79-157 223-166 189-12 316 82 278 206-31 104-203 160-363 117zm199-77c62-23 88-72 63-118-22-43-147-64-232-41-40 12-78 51-78 82 0 24 52 75 83 81 45 9 137 7 164-4z"/><path d="m4673 1101c-91-23-166-96-200-194-26-76-24-233 5-307 44-114 132-179 252-188 197-14 329 124 330 345 0 208-109 342-285 349-38 2-84-1-102-5zm161-95c78-32 116-114 116-246 0-170-67-260-195-260-79 0-129 31-168 105-19 34-22 57-22 155s3 121 22 155c24 46 58 80 93 94 37 14 116 13 154-3z"/><path d="m2743 1091c-86-22-143-85-143-158 0-97 54-153 212-218 142-59 173-112 104-181-32-32-38-34-98-34-65 0-159 25-205 55-12 8-25 15-28 15s-5-22-5-50c0-41 4-52 23-64 89-56 275-63 359-13 84 49 116 138 80 219-24 55-49 73-195 142-120 56-137 72-137 126 0 47 16 68 62 81 68 18 149-1 231-55l27-18v51 52l-55 25c-60 28-174 40-232 25z"/><path d="m5317 1089c-58-17-132-90-158-157-19-47-23-77-24-172 0-106 2-119 28-172 35-71 82-113 149-133 100-29 205-11 266 47l34 33-4-91c-7-116-32-168-98-202-39-20-56-23-130-19-79 4-102 10-193 55-4 2-7-20-5-49l3-53 55-20c67-24 212-28 283-7 64 18 129 78 157 143 26 60 27 82 34 516l3 272h-53-54v-41-42l-21 27c-47 60-177 91-272 65zm210-112c53-37 81-89 89-168 17-172-59-279-199-279-113 0-176 81-177 225 0 128 30 199 100 237 51 28 135 21 187-15z"/><path d="m655 720c-44-4-194-11-333-15l-252-8v-44-43h165 165v-140-140h50 50v145c0 131 2 145 18 145 27 0 233 19 275 26 35 6 37 7 37 45v39l-47-2c-27-1-84-5-128-8z"/><path d="m1370 485v-155h345 345v45 45h-295-295v110 110h-50-50z"/></g></svg>